<svg width="100" height="32" xmlns="http://www.w3.org/2000/svg"><g fill="none"><path d="M9.76 0l5.694 15.454L21.147 0h4.882l5.694 15.454L37.417 0h9.763L35.586 31.93h-7.524L23.59 19.727 19.114 31.93H11.59L0 0h9.76zm49.003 11.79L51.45 31.93H41.077l7.313-20.14h10.373zM63.04 0l-2.377 6.552H50.291L52.67 0h10.37z" fill="#FFF"/><path d="M66.623 6.341l2.268 5.62c2.443-1.97 5.799-3.188 8.53-3.188 3.351 0 5.086 1.676 5.139 4.048l.001.112v.437c-.468-.195-1.208-.39-2.07-.553l-.33-.06-.168-.028-.343-.055-.35-.05a26.026 26.026 0 00-.177-.024l-.358-.045a21.868 21.868 0 00-2.483-.157c-6.116 0-11.42 4.242-11.526 9.472l-.002.16v.097c0 5.256 5.147 7.941 10.256 7.941 2.892.013 4.994-.959 6.418-2.006l.19-.143c.093-.072.183-.144.27-.215l.169-.144.16-.142.154-.141.144-.14.137-.136.13-.134.12-.13.113-.127.106-.122.098-.117.132-.165.115-.151.099-.136.056-.08.11-.164.087-.141.01.192.019.193.021.18.03.206.025.15.03.157.035.166.041.171c.015.058.03.117.047.177l.053.18.06.183c.336.98.978 2.026 2.2 2.337 1.179.286 2.388.427 3.6.422l.28-.004-.391 1.112a.874.874 0 01-.751.571l-.068.003H58.573a.874.874 0 01-.841-1.104l.021-.067 6.435-17.698 2.377-6.552.058-.168zm12.09 11.427c1.062.043 2.115.21 3.137.499l.254.074v1.499c0 2.533-2.314 3.676-4.265 3.676l-.118-.001-.127-.005-.204-.013-.144-.013-.15-.018-.152-.022-.157-.028a5.254 5.254 0 01-.158-.032l-.16-.038c-.933-.24-1.877-.783-1.954-1.935l-.005-.1v-.097c0-2.264 1.28-3.446 4.203-3.446zM94.283 0a4.886 4.886 0 014.641 6.416l-.047.136-5.541 15.267a.492.492 0 00-.14-.11 1.846 1.846 0 01-1.046-1.44l-.009-.09v-5.642c0-3.844-.776-6.42-2.77-8.418-2.338-2.334-5.838-3.454-11.24-3.454-3.56.04-7.094.629-10.475 1.744l-.361.122L68.73.574a.87.87 0 01.747-.571L69.546 0h24.738z" fill="#31C7C7"/></g></svg>